<?xml version="1.0" encoding="utf-8"?>
<!-- Generator: Adobe Illustrator 19.0.0, SVG Export Plug-In . SVG Version: 6.00 Build 0)  -->
<svg version="1.1" id="Слой_1" xmlns="http://www.w3.org/2000/svg" xmlns:xlink="http://www.w3.org/1999/xlink" x="0px" y="0px"
	 viewBox="0 0 387.0002441 54" style="enable-background:new 0 0 387.0002441 54;" xml:space="preserve">
<style type="text/css">
	.st0{fill-rule:evenodd;clip-rule:evenodd;}
	.st1{fill-rule:evenodd;clip-rule:evenodd;fill:#143A84;}
</style>
<path class="st0" d="M92.5251007,32.917675V0h8.3769531v26.3601685h21.7998352v6.5575066H92.5251007L92.5251007,32.917675z
	 M314.8302002,32.9468498V0h36.083374v6.1945448h-27.5859375v7.3078823h26.7216187v5.6971979h-26.7216187v7.5543766h27.5859375
	v6.1928482H314.8302002L314.8302002,32.9468498z M356.8220825,32.9378929V0h8.3781128v26.3765125H387v6.5613804H356.8220825
	L356.8220825,32.9378929z M277.8800659,6.1900649v7.1779771h17.2442627c1.1043701,0,1.9675293-0.3708305,2.5840454-1.1124907
	c0.6174316-0.6201077,0.8640137-1.6120148,0.8640137-2.7242622c0.0003052-2.2288551-1.2338867-3.3412242-3.4480591-3.3412242
	H277.8800659L277.8800659,6.1900649z M277.8800659,19.1860657v7.5488071h16.8740845
	c2.2180786,0,3.694397-0.2451611,4.3120117-0.7419014c0.6102905-0.4957733,0.8563843-1.4846535,0.8563843-3.0948524
	c0.0005493-1.3603153-0.2463379-2.3516159-0.7336426-2.8464203c-0.6162109-0.6168385-1.9731445-0.865633-4.0645752-0.865633
	H277.8800659L277.8800659,19.1860657z M294.8737183,0c4.0657959,0,7.1470337,0.6204714,9.1151123,1.8582665
	c1.9743042,1.3620106,2.9573975,3.4651971,2.9573975,6.436317c0.0002441,2.4731684-0.3702393,4.2078257-1.1069336,5.3214054
	c-0.6173706,0.8652697-1.6013184,1.485136-3.2017212,1.9811497c1.9703369,0.6159925,3.4418335,1.3604364,4.1858521,2.2277651
	c0.9830933,1.2365837,1.6030273,3.0924301,1.6030273,5.447073c0.0002441,3.4628963-0.9870605,5.9380016-2.8340454,7.4227753
	c-1.9706421,1.4856224-4.9263306,2.2284927-8.9903564,2.2284927h-27.0927124V0H294.8737183L294.8737183,0z M205.7099762,0
	c4.1847839,0,7.2663269,0.7435971,9.2338257,2.2316389c1.8507385,1.4874365,2.8346558,3.8395376,2.8346558,7.0607834h-8.4968567
	c0-1.1141853-0.2469177-1.8575401-0.8634033-2.3540382c-0.4901428-0.4948034-1.7200928-0.7429919-3.4480591-0.7429919H190.805954
	c-1.22995,0-2.2138672,0.2481885-2.9542847,0.8670859c-0.7364197,0.4944401-1.1071777,1.3641901-1.1071777,2.6018639
	c0,1.3617687,0.3701782,2.3533115,1.1071777,2.8495684c0.6208191,0.3699818,1.600769,0.4958925,2.9537048,0.4958925h15.3949585
	c4.3154907,0,7.2700195,0.495409,8.7434692,1.4852571c1.8507385,1.3629789,2.8346558,4.2131519,2.8346558,8.4240036
	c0.0003052,3.5953445-0.8602905,6.071661-2.7073669,7.6808929c-1.8476257,1.6109238-4.8027344,2.3545227-8.8710327,2.3545227
	h-17.1141663c-4.3084106,0-7.3896484-0.7435989-9.1153564-2.1063347c-1.5993347-1.4859829-2.4638672-3.9650841-2.4638672-7.1843929
	h8.3772278c0,0.8673286,0.3676453,1.6109257,1.2307739,2.2288532c0.7373047,0.6218033,1.7203674,0.8675709,2.9545898,0.8675709
	h14.1638489c1.7234802,0,3.0744324-0.2457676,3.9376221-0.8675709c0.7404175-0.6179276,1.110321-1.611166,1.110321-2.9735413
	c0.0005493-1.2386417-0.2463684-2.2282486-0.862854-2.7251091c-0.7341919-0.6181717-2.2181396-0.9900913-4.4331055-0.9900913
	h-12.5611572c-5.0490723,0-8.375-0.4956512-10.1015625-1.7339306c-1.9675598-1.3641891-2.951416-4.0893002-2.951416-8.1775103
	c0.0002441-3.3447347,0.9833374-5.6981678,2.951416-7.1862097C183.2964325,0.7435971,186.7444916,0,191.4235992,0H205.7099762
	L205.7099762,0z M251.2740326,0c4.3129272,0,7.2691803,0.7429919,9.2446442,2.2292175
	c1.8411255,1.4859838,2.8309937,3.8356638,2.8309937,7.0541248h-8.5034027c0-1.1135798-0.2440491-1.8557243-0.8571777-2.3513751
	c-0.4938049-0.4946823-1.7277527-0.7423863-3.4514771-0.7423863h-14.1635742c-1.2271423,0-2.2175598,0.247704-2.9545593,0.8655124
	c-0.7375793,0.494803-1.1077881,1.3630996-1.1077881,2.5999265c0,1.3605576,0.3696289,2.3502855,1.1077881,2.8465414
	c0.6134033,0.3696194,1.6035767,0.4952869,2.9542236,0.4952869h15.3972473c4.4351044,0,7.2666473,0.4952879,8.7477264,1.4836836
	c1.8411255,1.3612843,2.8309937,4.2087936,2.8309937,8.4161358c0.0005493,3.5923176-0.864563,6.0662117-2.7110596,7.673748
	c-1.7234497,1.6094742-4.8058624,2.35186-8.8676605,2.35186h-16.9985046c-4.4313965,0-7.5129395-0.7423859-9.1096802-2.1039143
	c-1.7234802-1.4852562-2.588623-3.9616947-2.588623-7.1776123h8.3746948c0,0.8670864,0.3696289,1.6094723,1.2324829,2.226675
	c0.7384338,0.6215611,1.7282715,0.8672066,2.9517212,0.8672066h14.166687c1.8482361,0,3.078186-0.2456455,3.9418945-0.8672066
	c0.7409668-0.6172028,1.1043701-1.6099567,1.1043701-2.9707565c0.0002747-1.2370701-0.2437744-2.2261906-0.8569031-2.722084
	c-0.7415771-0.6181717-2.2181396-0.9893646-4.4359741-0.9893646h-12.5585938c-5.0493469,0-8.3772278-0.4958935-10.0986938-1.732235
	c-1.9729004-1.3627377-2.9571228-4.0853052-2.9571228-8.1696415c0.0005798-3.3415871,0.9839172-5.6927195,2.9571228-7.1793089
	C228.9874725,0.7429919,232.3116913,0,236.9942169,0H251.2740326L251.2740326,0z M64.8187103,13.8366947h22.4146729v8.6943474
	c0,3.9192009-0.9884338,6.6125927-2.9562378,8.0816269c-1.9700928,1.5921574-5.2991028,2.3270397-9.8546448,2.3270397H57.305481
	c-4.4350739,0-7.6376648-0.8589745-9.8552094-2.5712337c-2.0896912-1.7139549-3.2037048-4.6535969-3.2037048-8.5730381v-9.9183426
	c0-4.4083133,0.9861603-7.4686599,3.0812378-9.1846724C49.2987366,0.856069,52.6235046,0,57.3049164,0h16.8749237
	c4.5558624,0,7.7570038,0.6103017,9.7245331,1.9575419c2.2178345,1.4712133,3.3284607,4.1644831,3.3284607,8.0829563h-8.4971313
	c0-1.345787-0.4977722-2.2058516-1.4776917-2.6947222c-0.9862061-0.6111493-2.7085266-0.8561902-5.1749573-0.8561902h-12.443512
	c-2.5815277,0-4.428299,0.3673191-5.4161682,1.3450608c-0.9830627,0.8600645-1.4768524,2.5743818-1.4768524,5.0224895v8.2034197
	c0,2.2051239,0.3736115,3.6744003,1.2342072,4.4123077c0.8631439,0.7318535,2.7116394,0.9773788,5.5414429,0.9773788h13.7902832
	c2.0948181,0,3.4511719-0.2455254,4.3154602-0.7353649c0.7369995-0.4876595,1.1074829-1.348814,1.1074829-2.5712337
	l0.0003052-3.5497017H64.8187103V13.8366947L64.8187103,13.8366947z M139.9433441,24.6882248L135.3880463,33h-9.8540649
	l18.7214355-32.9991531h12.5617371L175.2890778,33h-9.8543091l-4.5553284-8.3117752H139.9433441L139.9433441,24.6882248z
	 M157.4345245,18.4847221l-6.6531982-12.279644h-0.3699036l-7.0202942,12.279644H157.4345245L157.4345245,18.4847221z"/>
<path class="st1" d="M0,0h27.5529938l4.7651558,0.0008504L19.333107,28.2879009L0,19.3834229v0.9421272l20.4556236,9.4715786
	L33,2.6270251V0h-5.4470062L15.9748545,25.1373901L0,17.796566V0L0,0z M33,13.0068359V33h-9.1734123L0,21.8713455V33h23.8265877
	L33,13.0068359L33,13.0068359z"/>
<polygon class="st0" points="0.9263763,44.6036377 0,44.6036377 0,53.6053467 0.9263763,53.6053467 0.9263763,44.6036377 "/>
<polygon class="st0" points="9,44.6053467 9,53.6053467 9.9399719,53.6053467 9.9399719,45.305542 10.4621277,45.305542 
	17.641983,53.6053467 19.000061,53.6053467 19.000061,44.6053467 18.0601044,44.6053467 18.0601044,52.6717529 
	11.088562,44.6053467 9,44.6053467 "/>
<polygon class="st0" points="25.4273529,44.6036377 25.4273529,53.6053467 26.3531494,53.6053467 26.3531494,45.3040771 
	26.8676147,45.3040771 33.9397736,53.6053467 35.2774506,53.6053467 35.2774506,44.6036377 34.3513641,44.6036377 
	34.3513641,52.6715088 27.4847412,44.6036377 25.4273529,44.6036377 "/>
<path class="st0" d="M51.4576263,47.6390381v2.8791504c0,1.7509766-0.4246521,2.1791992-2.3020325,2.1791992h-3.9092712
	c-1.7359161,0-2.3788147-0.4543457-2.3788147-2.1791992v-2.8791504c0-1.7515869,0.7072296-2.2312012,2.3788147-2.2312012h3.9092712
	c1.7744904,0,2.3014526,0.4538574,2.3014526,2.2312012H51.4576263L51.4576263,47.6390381z M52.3833771,50.5181885v-2.8015137
	c0-2.6199951-1.0547485-3.2167969-3.2150269-3.2167969h-3.9086914c-2.5205688,0-3.3182373,0.907959-3.3182373,3.2167969
	l0.0002747,2.8015137c0,2.3088379,0.9002991,3.0871582,3.3173981,3.0871582h3.9098358
	c2.3657837,0,3.213913-0.519043,3.213913-3.0871582H52.3833771L52.3833771,50.5181885z"/>
<polygon class="st0" points="67.8690643,44.6036377 63.7540131,52.59375 63.561264,52.59375 59.4462128,44.6036377 
	58.3662262,44.6036377 63.1496735,53.6053467 64.1398163,53.6053467 68.9490814,44.6036377 67.8690643,44.6036377 "/>
<path class="st0" d="M74.0709839,53.6053467l1.1437836-2.2572021h6.2756348l1.1443481,2.2572021h1.0799866l-4.6292419-9.001709
	h-1.4142151l-4.6292572,9.001709H74.0709839L74.0709839,53.6053467z M75.716507,50.4401855l2.6489868-5.1878662l2.6486816,5.1878662
	H75.716507L75.716507,50.4401855z"/>
<polygon class="st0" points="88.1932068,44.6036377 88.1932068,45.5115967 92.5273743,45.5115967 92.5273743,53.6053467 
	93.4531708,53.6053467 93.4531708,45.5115967 97.8119965,45.5115967 97.8119965,44.6036377 88.1932068,44.6036377 "/>
<polygon class="st0" points="106.0001526,44.6036377 104.9998169,44.6036377 104.9998169,53.6053467 106.0001526,53.6053467 
	106.0001526,44.6036377 "/>
<path class="st0" d="M122.4569855,47.6390381v2.8791504c0,1.7509766-0.4248962,2.1791992-2.302002,2.1791992h-3.9093018
	c-1.7359314,0-2.3788147-0.4543457-2.3788147-2.1791992v-2.8791504c0-1.7515869,0.7072601-2.2312012,2.3788147-2.2312012h3.9093018
	C121.9291534,45.4078369,122.4569855,45.8616943,122.4569855,47.6390381L122.4569855,47.6390381L122.4569855,47.6390381z
	 M123.3827972,50.5181885v-2.8015137c0-2.6199951-1.0547791-3.2167969-3.2150879-3.2167969h-3.9086609
	c-2.5205841,0-3.3179626,0.907959-3.3179626,3.2167969v2.8015137c0,2.3088379,0.8999634,3.0871582,3.3173828,3.0871582h3.9095459
	C122.5340729,53.6053467,123.3827972,53.0863037,123.3827972,50.5181885L123.3827972,50.5181885L123.3827972,50.5181885z"/>
<polygon class="st0" points="130.0217743,44.6036377 130.0217743,53.6053467 130.9595184,53.6053467 130.9595184,45.3040771 
	131.4805145,45.3040771 138.6450653,53.6053467 140.0000458,53.6053467 140.0000458,44.6036377 139.0623322,44.6036377 
	139.0623322,52.6715088 132.1058502,44.6036377 130.0217743,44.6036377 "/>
<path class="st0" d="M163.8570099,49.3250732v0.9077148h4.385437V50.53125c0,1.8419189-0.5918884,2.1661377-2.2767639,2.1661377
	h-3.9344788c-1.7489929,0-2.3533325-0.4929199-2.3533325-2.1791992l0.0002441-2.7235107
	c0-1.8161621,0.5011902-2.3868408,2.3530884-2.3868408h3.9350586c1.7486877,0,2.2756348,0.6484375,2.2756348,1.6600342h0.964325
	c0-1.6600342-1.0672302-2.5679932-3.2275085-2.5679932h-3.9347839c-2.3918457,0-3.2918701,0.907959-3.2918701,3.2947998v2.7235107
	c0,2.1791992,0.7971191,3.0871582,3.2918701,3.0871582h3.9347839c2.5718689,0,3.2275085-0.7912598,3.2275085-3.5800781v-0.7001953
	H163.8570099L163.8570099,49.3250732z"/>
<polygon class="st0" points="177.0009613,44.6036377 176.0187531,44.6036377 176.0187531,53.6053467 184.0002594,53.6053467 
	184.0002594,52.6973877 177.0009613,52.6973877 177.0009613,44.6036377 "/>
<path class="st0" d="M206.3412323,47.1456299c0,1.5047607,0.5524902,2.2832031,2.9568176,2.2832031h4.487793
	c1.6849365,0,2.1478271,0.4669189,2.1478271,1.6081543c0,1.1672363-0.694519,1.6604004-2.0834656,1.6604004h-4.2173767
	c-1.7617188,0-2.2892761-0.6748047-2.2892761-1.6604004h-0.9258118c0,1.7381592,1.1315918,2.5683594,2.9060974,2.5683594h4.6034546
	c2.0577087,0,2.9321899-0.7392578,2.9321899-2.5427246c0-1.8934326-1.0031738-2.541748-3.3179626-2.541748h-3.9857788
	c-1.9287109,0-2.2892761-0.3891602-2.2892761-1.3747559c0-1.0898438,0.3341675-1.6345215,1.9930115-1.6345215h4.2953796
	c1.7484131,0,2.3014526,0.661377,2.3014526,1.6345215l0.9263611-0.0004883c0-1.7119141-1.0547791-2.5419922-3.0353394-2.5419922
	h-4.5003052c-2.0063477,0-2.9063416,0.7263184-2.9063416,2.5424805L206.3412323,47.1456299L206.3412323,47.1456299z"/>
<path class="st0" d="M223.4724274,47.1456299c0,1.5047607,0.5527344,2.2832031,2.9570923,2.2832031h4.487793
	c1.6849365,0,2.147522,0.4669189,2.147522,1.6081543c0.0003052,1.1672363-0.6944885,1.6604004-2.0831604,1.6604004h-4.2174072
	c-1.7620239,0-2.2889404-0.6748047-2.2889404-1.6604004h-0.9258118c0,1.7381592,1.1312866,2.5683594,2.9057922,2.5683594h4.6034546
	c2.0576782,0,2.9321899-0.7392578,2.9321899-2.5427246c0-1.8934326-1.0031738-2.541748-3.317688-2.541748h-3.9863892
	c-1.9286499,0-2.2889709-0.3891602-2.2889709-1.3747559c0-1.0898438,0.3345337-1.6345215,1.993042-1.6345215h4.2953796
	c1.7484131,0,2.3014526,0.661377,2.3014526,1.6345215l0.9260559-0.0004883c0-1.7119141-1.0547791-2.5419922-3.0350342-2.5419922
	h-4.5003357c-2.006073,0-2.9060364,0.7263184-2.9060364,2.5424805V47.1456299L223.4724274,47.1456299z"/>
<path class="st0" d="M252.8716583,47.1456299c0,1.5047607,0.5527649,2.2832031,2.9573669,2.2832031h4.4878082
	c1.6846313,0,2.1472778,0.4669189,2.1472778,1.6081543c0,1.1672363-0.694458,1.6604004-2.0831909,1.6604004h-4.2173462
	c-1.761795,0-2.2890167-0.6748047-2.2890167-1.6604004h-0.9257812c0,1.7381592,1.1315918,2.5683594,2.9057922,2.5683594h4.6037445
	c2.0571289,0,2.9315796-0.7392578,2.9315796-2.5427246c0.0003052-1.8934326-1.0028687-2.541748-3.3173828-2.541748h-3.9863281
	c-1.9287262,0-2.2887421-0.3891602-2.2887421-1.3747559c0-1.0898438,0.3342285-1.6345215,1.993042-1.6345215h4.2947845
	c1.7487183,0,2.3017578,0.661377,2.3017578,1.6345215l0.9260254-0.0004883c0-1.7119141-1.0547485-2.5419922-3.034729-2.5419922
	h-4.5003204c-2.0063477,0-2.9068909,0.7263184-2.9068909,2.5424805L252.8716583,47.1456299L252.8716583,47.1456299z"/>
<path class="st0" d="M279.992981,47.6392822v2.8789062c0,1.7509766-0.4243164,2.1791992-2.3014526,2.1791992h-4.4093018
	c-1.7356567,0-2.3790894-0.4543457-2.3790894-2.1791992l0.0005493-2.8789062c0-1.7512207,0.7072754-2.2312012,2.37854-2.2312012
	h4.4093018C279.4660034,45.4080811,279.992981,45.8619385,279.992981,47.6392822L279.992981,47.6392822L279.992981,47.6392822z
	 M280.9193726,50.5181885v-2.8012695c0-2.6199951-1.0548096-3.2165527-3.2150879-3.2165527h-4.4086914
	c-2.520874,0-3.3182373,0.9077148-3.3182373,3.2165527l0.0005493,2.8012695c0,2.3088379,0.8997192,3.0871582,3.3173828,3.0871582
	h4.4096069c2.3657837,0,3.2138672-0.519043,3.2138672-3.0871582H280.9193726L280.9193726,50.5181885z"/>
<polygon class="st0" points="287.9679565,44.6036377 286.999939,44.6036377 286.999939,53.6053467 294.9998779,53.6053467 
	294.9998779,52.6973877 287.9679565,52.6973877 287.9679565,44.6036377 "/>
<path class="st0" d="M300.999939,44.6051025v5.9145508c0,2.4128418,1.0545654,3.0874023,3.3182983,3.0874023l4.4747314-0.001709
	c2.0831909,0,3.1889648-0.5708008,3.1889648-3.1132812l0.0003052-5.8884277h-0.9260864v6.2258301
	c0,1.2191162-0.6170654,1.8679199-2.2507324,1.8679199l-4.4871826,0.0014648c-1.8776855,0-2.3924561-0.5964355-2.3924561-1.8161621
	l0.0008545-6.2775879H300.999939L300.999939,44.6051025z"/>
<polygon class="st0" points="318.0200195,44.6036377 318.0200195,45.5115967 323.0387573,45.5115967 323.0387573,53.6053467 
	323.9997559,53.6053467 323.9997559,45.5115967 329.000061,45.5130615 329.000061,44.6051025 318.0200195,44.6036377 "/>
<polygon class="st0" points="335.999939,44.6036377 334.9749146,44.6036377 334.9749146,53.6053467 335.999939,53.6053467 
	335.999939,44.6036377 "/>
<path class="st0" d="M352.9718018,47.6390381v2.8791504c0,1.7509766-0.4243774,2.1791992-2.3017578,2.1791992h-4.4089966
	c-1.7359619,0-2.3788452-0.4543457-2.3788452-2.1791992v-2.8791504c0-1.7515869,0.7072754-2.2312012,2.3788452-2.2312012h4.4089966
	C352.4445801,45.4078369,352.9718018,45.8616943,352.9718018,47.6390381L352.9718018,47.6390381L352.9718018,47.6390381z
	 M353.8978271,50.5181885v-2.8015137c0-2.6199951-1.0547485-3.2167969-3.2147217-3.2167969h-4.4087524
	c-2.5205078,0-3.3182373,0.907959-3.3182373,3.2167969l0.0003052,2.8015137c0,2.3088379,0.9000244,3.0871582,3.3173828,3.0871582
	h4.4096069c2.3657837,0,3.2142334-0.519043,3.2142334-3.0871582H353.8978271L353.8978271,50.5181885z"/>
<polygon class="st0" points="360.0371094,44.6036377 360.0371094,53.6053467 360.9734497,53.6053467 360.9734497,45.3040771 
	361.4935913,45.3040771 368.6467896,53.6053467 369.9998169,53.6053467 369.9998169,44.6036377 369.0632324,44.6036377 
	369.0632324,52.6715088 362.1177979,44.6036377 360.0371094,44.6036377 "/>
<path class="st0" d="M376.5770264,47.1456299c0,1.5047607,0.5479736,2.2832031,2.930481,2.2832031h4.4472656
	c1.6693115,0,2.1276855,0.4669189,2.1276855,1.6081543c0.0007935,1.1672363-0.6879883,1.6604004-2.0639038,1.6604004h-4.1791382
	c-1.7461548,0-2.2685547-0.6748047-2.2685547-1.6604004h-0.9172974c0,1.7381592,1.1213379,2.5683594,2.8794556,2.5683594h4.5617676
	c2.0386353,0,2.9054565-0.7392578,2.9054565-2.5427246c0-1.8934326-0.9943848-2.541748-3.2875366-2.541748h-3.9503784
	c-1.9111328,0-2.2677002-0.3891602-2.2677002-1.3747559c0-1.0898438,0.3310547-1.6345215,1.9748535-1.6345215h4.2562256
	c1.7328491,0,2.2801514,0.661377,2.2801514,1.6345215l0.918457-0.0004883c0-1.7119141-1.0457153-2.5419922-3.0078125-2.5419922
	h-4.4594727c-1.987915,0-2.880249,0.7263184-2.880249,2.5424805L376.5770264,47.1456299L376.5770264,47.1456299z"/>
<path class="st0" d="M190.6234283,53.6053467l1.1443176-2.2572021h6.2753296l1.1443787,2.2572021h1.0799866l-4.6289673-9.001709
	h-1.4147949l-4.6286621,9.001709H190.6234283L190.6234283,53.6053467z M192.269455,50.4401855l2.6487427-5.1878662
	l2.6489258,5.1878662H192.269455L192.269455,50.4401855z"/>
</svg>
